<svg width="372" xmlns="http://www.w3.org/2000/svg" height="372" fill="none"><defs><clipPath id="a" class="frame-clip frame-clip-def"><rect rx="45" ry="45" width="372" height="372" transform="matrix(1.000000, 0.000000, 0.000000, 1.000000, 0.000000, 0.000000)"/></clipPath></defs><g clip-path="url(#a)"><g class="fills"><rect width="372" height="372" class="frame-background" transform="matrix(1.000000, 0.000000, 0.000000, 1.000000, 0.000000, 0.000000)" style="fill: rgb(255, 255, 255); fill-opacity: 1;" ry="45" rx="45"/></g><g class="frame-children"><g filter="url(#b)" class="lucide lucide-sprout" style="fill: rgb(0, 0, 0);"><defs><filter id="b" x="-.077" y="-.077" width="1.189" height="1.189" filterUnits="objectBoundingBox" color-interpolation-filters="sRGB"><feFlood flood-opacity="0" result="BackgroundImageFix"/><feColorMatrix in="SourceAlpha" values="0 0 0 0 0 0 0 0 0 0 0 0 0 0 0 0 0 0 127 0"/><feOffset dx="4" dy="4"/><feGaussianBlur stdDeviation="2"/><feColorMatrix values="0 0 0 0 0 0 0 0 0 0 0 0 0 0 0 0 0 0 0.2 0"/><feBlend in2="BackgroundImageFix" result="filter_23548878-dc32-8087-8005-ca1867eb90eb"/><feBlend in="SourceGraphic" in2="filter_23548878-dc32-8087-8005-ca1867eb90eb" result="shape"/></filter></defs><path d="M110.792,302.833L256.208,302.833" fill="none" style="fill: none;" class="fills"/><g fill="none" stroke-linejoin="round" class="strokes"><path d="M110.792,302.833L256.208,302.833" style="fill: none; stroke-width: 20; stroke: rgb(93, 187, 53); stroke-opacity: 1;" class="stroke-shape"/></g><path d="M154.417,302.833C234.396,266.479,166.050,209.767,198.042,157.417" fill="none" style="fill: none;" class="fills"/><g fill="none" stroke-linejoin="round" class="strokes"><path d="M154.417,302.833C234.396,266.479,166.050,209.767,198.042,157.417" style="fill: none; stroke-width: 20; stroke: rgb(93, 187, 53); stroke-opacity: 1;" class="stroke-shape"/></g><path d="M147.146,148.692C163.142,160.325,173.321,180.683,180.592,202.496C151.508,208.313,129.696,208.313,110.792,198.133C93.342,189.408,77.346,170.504,67.167,137.058C107.883,129.788,131.150,137.058,147.146,148.692ZZ" fill="none" style="fill: none;" class="fills"/><g fill="none" stroke-linejoin="round" class="strokes"><path d="M147.146,148.692C163.142,160.325,173.321,180.683,180.592,202.496C151.508,208.313,129.696,208.313,110.792,198.133C93.342,189.408,77.346,170.504,67.167,137.058C107.883,129.788,131.150,137.058,147.146,148.692ZZ" style="fill: none; stroke-width: 20; stroke: rgb(93, 187, 53); stroke-opacity: 1;" class="stroke-shape"/></g><path d="M214.038,99.250C202.951,116.577,197.374,136.857,198.042,157.417C225.671,155.962,246.029,148.692,260.571,137.058C275.112,122.517,283.837,103.612,285.292,70.167C246.029,71.621,227.125,84.708,214.038,99.250ZZ" fill="none" style="fill: none;" class="fills"/><g fill="none" stroke-linejoin="round" class="strokes"><path d="M214.038,99.250C202.951,116.577,197.374,136.857,198.042,157.417C225.671,155.962,246.029,148.692,260.571,137.058C275.112,122.517,283.837,103.612,285.292,70.167C246.029,71.621,227.125,84.708,214.038,99.250ZZ" style="fill: none; stroke-width: 20; stroke: rgb(93, 187, 53); stroke-opacity: 1;" class="stroke-shape"/></g></g></g></g></svg>